<svg width="203" height="104" viewBox="0 0 203 104" fill="none" xmlns="http://www.w3.org/2000/svg">
<g id="Illustration">
<path id="Vector" d="M31.5173 104H30.863V103.591H31.5118H33.0383V104H31.5173ZM28.1316 103.94C27.3902 103.913 26.6651 103.874 25.9509 103.831V103.421C26.6651 103.465 27.3902 103.503 28.1316 103.531V103.94ZM35.7643 103.907V103.498C36.4785 103.471 37.2036 103.432 37.945 103.383L37.9723 103.793C37.2254 103.842 36.4948 103.88 35.7806 103.907H35.7643ZM23.225 103.607C22.4835 103.536 21.753 103.454 21.0442 103.361L21.0987 102.952C21.7966 103.045 22.5217 103.127 23.2795 103.203L23.225 103.607ZM40.6709 103.607L40.6382 103.198C41.3524 103.138 42.0775 103.067 42.819 102.99L42.8626 103.394C42.1266 103.46 41.4015 103.525 40.6818 103.591L40.6709 103.607ZM45.5776 103.061L45.5231 102.652L47.7039 102.357L47.7638 102.761C47.006 102.876 46.2864 102.974 45.5722 103.067L45.5776 103.061ZM18.3564 102.941C17.6259 102.816 16.9008 102.674 16.2084 102.527L16.2902 102.128C16.9826 102.276 17.7022 102.412 18.4219 102.543L18.3564 102.941ZM50.4352 102.352L50.3698 101.948L52.5179 101.572L52.5887 101.976L50.4352 102.352ZM13.5479 101.883C12.8228 101.686 12.1195 101.474 11.4489 101.25L11.5743 100.862C12.2394 101.086 12.9427 101.293 13.6515 101.49L13.5479 101.883ZM55.271 101.463L55.1893 101.059C55.8926 100.917 56.6068 100.77 57.321 100.611L57.4082 101.015C56.6831 101.168 55.9743 101.321 55.2656 101.49L55.271 101.463ZM60.0687 100.41L59.976 100.011C60.6793 99.8475 61.3826 99.6729 62.0913 99.4983L62.1895 99.8966C61.4753 100.071 60.7938 100.246 60.0632 100.399L60.0687 100.41ZM8.88109 100.295C8.18326 100 7.51267 99.6893 6.89116 99.3619L7.07653 99.0018C7.69259 99.3182 8.35226 99.6238 9.0392 99.913L8.88109 100.295ZM64.8336 99.2036L64.73 98.8053C65.4224 98.6198 66.1257 98.4288 66.829 98.2269L66.938 98.6198C66.2457 98.8271 65.526 99.0181 64.8282 99.2091L64.8336 99.2036ZM4.52505 97.9487C3.9171 97.5363 3.34119 97.0784 2.80226 96.5791L3.08031 96.279C3.60675 96.7683 4.16795 97.2187 4.75948 97.6267L4.52505 97.9487ZM69.5549 97.8614L69.435 97.4739C70.1274 97.2666 70.8198 97.0483 71.5176 96.8301L71.643 97.2229L69.5549 97.8614ZM74.2381 96.3827L74.1072 95.9952C74.7942 95.7715 75.4811 95.5369 76.1735 95.2968L76.3044 95.6842C75.612 95.9243 74.925 96.1589 74.2381 96.3827ZM78.8776 94.7785L78.7413 94.3911L80.7858 93.6381L80.9275 94.0255C80.2461 94.2819 79.5591 94.5329 78.8776 94.7785ZM1.0304 94.4402C0.630027 93.8083 0.33023 93.118 0.14175 92.394L0.534285 92.2903C0.71509 92.9737 0.996194 93.6265 1.36842 94.2274L1.0304 94.4402ZM83.479 93.0488L83.3318 92.6668L85.3545 91.8647L85.5071 92.2467L83.479 93.0488ZM88.0313 91.2045L87.8732 90.828L89.8795 89.9768L90.0431 90.3533L88.0313 91.2045ZM0.403441 89.6658L0 89.6112C0.102054 88.8802 0.284904 88.1628 0.545187 87.4723L0.92682 87.6141C0.677034 88.2765 0.501499 88.9646 0.403441 89.6658ZM92.54 89.2565L92.371 88.88L92.7308 88.7163C93.276 88.4762 93.8212 88.2253 94.3664 87.9743L94.5409 88.3453L92.9053 89.0928L92.54 89.2565ZM96.9887 87.1613L96.8034 86.7902C97.4576 86.4701 98.1064 86.1427 98.7497 85.808L98.9405 86.1682C98.2917 86.5065 97.6375 86.8339 96.9887 87.1613ZM2.12623 85.2024L1.77731 84.995C2.15356 84.3644 2.56303 83.7543 3.00398 83.1671L3.33109 83.4127C2.89558 83.9881 2.48979 84.5854 2.11533 85.2024H2.12623ZM101.35 84.8859L101.154 84.5258C101.792 84.182 102.43 83.8274 103.062 83.4727L103.258 83.8274C102.631 84.1875 101.994 84.5422 101.356 84.8859H101.35ZM105.625 82.4578L105.417 82.1086C106.044 81.7375 106.666 81.3665 107.287 80.9845L107.5 81.3338C106.884 81.7157 106.257 82.0867 105.63 82.4578H105.625ZM5.04843 81.301L4.74313 81.0282C5.20654 80.5098 5.71356 79.9696 6.24784 79.4349L6.54224 79.7241C6.00796 80.2697 5.50639 80.8045 5.04843 81.301ZM109.817 79.8769L109.599 79.5331L111.431 78.3545L111.654 78.6928L109.817 79.8769ZM8.51037 77.8689L8.23777 77.5633C8.78296 77.0886 9.32815 76.603 9.87333 76.1228L10.135 76.4339C9.58984 76.9359 9.03375 77.3942 8.51037 77.8689ZM113.922 77.1978L113.693 76.8595C114.293 76.4557 114.887 76.0465 115.481 75.6318L115.716 75.9646C115.122 76.3902 114.522 76.794 113.922 77.1978ZM12.2722 74.7205L12.0214 74.3986C12.5666 73.9512 13.1717 73.5092 13.7605 73.0672L14.0059 73.3946C13.4134 73.8311 12.8355 74.2731 12.2722 74.7205ZM117.951 74.3877L117.711 74.0548C118.3 73.6292 118.889 73.2036 119.472 72.7726L119.718 73.1L117.951 74.3877ZM16.203 71.7959L15.9685 71.463C16.5646 71.0411 17.1643 70.6264 17.7676 70.219L17.9966 70.5573C17.3969 70.9665 16.7972 71.3757 16.203 71.7959ZM121.898 71.4794L121.648 71.1575C122.231 70.7155 122.803 70.2735 123.376 69.8261L123.627 70.148C123.054 70.5791 122.476 71.0211 121.898 71.4794ZM20.27 69.0676L20.052 68.7239C20.6626 68.3256 21.2786 67.9327 21.9002 67.5508L22.1182 67.8945C21.4967 68.2655 20.8861 68.653 20.27 69.0513V69.0676ZM125.775 68.4565L125.518 68.1401L127.214 66.7705L127.47 67.087L125.775 68.4565ZM24.4407 66.4704L24.2336 66.1212C24.8623 65.7574 25.4893 65.3936 26.1145 65.0299L26.3216 65.3845C25.6947 65.7065 25.0677 66.0775 24.4407 66.454V66.4704ZM129.575 65.3463L129.313 65.0299C129.858 64.5606 130.431 64.0914 130.976 63.6221L131.243 63.9331L129.575 65.3463ZM28.715 64.0095L28.5133 63.6549C29.1566 63.2947 29.7999 62.9455 30.4323 62.6017L30.6231 62.9619C29.9744 63.2947 29.3365 63.6385 28.6932 63.9931L28.715 64.0095ZM133.304 62.127L133.031 61.8215C133.576 61.3413 134.121 60.8557 134.667 60.3755L134.939 60.6811C134.394 61.1613 133.849 61.6578 133.304 62.127ZM32.9893 61.6578L32.8039 61.2977L34.7502 60.2991L34.9356 60.6647C34.3195 60.9921 33.6707 61.3195 32.9893 61.6578ZM37.3835 59.4752L37.209 59.1096C37.8959 58.7822 38.5556 58.4712 39.1935 58.182L39.3625 58.5531C38.7519 58.8368 38.0868 59.1478 37.4053 59.4752H37.3835ZM136.951 58.8586L136.673 58.5531C137.218 58.062 137.763 57.5655 138.281 57.0744L138.559 57.3745L136.951 58.8586ZM41.8813 57.4563L41.7232 57.0744C42.3501 56.8125 42.9335 56.5778 43.4732 56.3759L43.615 56.7579C43.0861 56.9598 42.5028 57.1944 41.8813 57.4563ZM140.56 55.4975L140.277 55.2028L141.852 53.6914L142.136 53.986L140.56 55.4975ZM144.087 52.0763L143.798 51.7871C144.344 51.2687 144.84 50.7558 145.347 50.2429L145.636 50.5321C145.14 51.045 144.622 51.5579 144.098 52.0763H144.087ZM147.555 48.5896L147.26 48.3004C147.778 47.7547 148.28 47.2527 148.776 46.7344L149.07 47.0181L147.555 48.5896ZM150.951 45.0374L150.657 44.7537L152.145 43.1604L152.445 43.4387L150.951 45.0374ZM154.288 41.4198L153.988 41.147C154.49 40.6013 154.975 40.0557 155.444 39.51L155.749 39.7829C155.291 40.3231 154.8 40.8632 154.299 41.4198H154.288ZM157.559 37.7422L157.254 37.4748C157.75 36.9019 158.23 36.3508 158.682 35.8378L158.993 36.0998C158.54 36.6181 158.066 37.1692 157.564 37.7422H157.559ZM160.759 33.999L160.443 33.7371C160.95 33.1315 161.413 32.5694 161.839 32.0511L162.155 32.3075C161.735 32.8259 161.272 33.3934 160.765 33.999H160.759ZM163.872 30.1795L163.551 29.9231C164.434 28.8318 164.897 28.1934 164.897 28.1934L165.224 28.4389C165.224 28.4389 164.766 29.0555 163.878 30.1795H163.872Z" fill="#5F5E5D"/>
<path id="Vector_2" d="M166.2 16.561L164.636 29.1L171.898 20.1623L202.886 0.142578L166.2 16.561Z" fill="#DEDDDC"/>
<path id="Vector_3" opacity="0.4" d="M166.2 16.561L164.636 29.1L171.898 20.1623L202.886 0.142578L166.2 16.561Z" fill="white"/>
<path id="Vector_4" d="M173.648 22.6011L164.636 29.0998L171.898 20.1621L173.648 22.6011Z" fill="#DEDDDC"/>
<path id="Vector_5" opacity="0.3" d="M173.648 22.6011L164.636 29.0998L171.898 20.1621L173.648 22.6011Z" fill="white"/>
<path id="Vector_6" d="M171.897 20.1623L202.886 0.142578L181.362 33.5743L171.897 20.1623Z" fill="#DEDDDC"/>
<path id="Vector_7" opacity="0.7" d="M172.012 20.0197L203 0L181.476 33.4317L172.012 20.0197Z" fill="white"/>
<path id="Vector_8" d="M166.2 16.561L150.073 10.7063L202.886 0.142578L166.2 16.561Z" fill="#DEDDDC"/>
<path id="Vector_9" opacity="0.7" d="M166.2 16.561L150.073 10.7063L202.886 0.142578L166.2 16.561Z" fill="white"/>
</g>
</svg>
