<svg width="72" height="103" viewBox="0 0 72 103" fill="none" xmlns="http://www.w3.org/2000/svg">
<g id="Illustration">
<path id="Vector" fill-rule="evenodd" clip-rule="evenodd" d="M36.0001 0C14.7445 0 4.11667 0 1.01958 6.68152C0.753384 7.25587 0.528795 7.85245 0.34792 8.46568C-1.75593 15.5999 5.75905 23.8686 20.789 40.4062L30.8572 51.4287H41.143L51.2112 40.4062C66.2412 23.8686 73.756 15.5999 71.652 8.46568C71.4715 7.85245 71.2468 7.25587 70.9804 6.68152C67.8833 0 57.2556 0 36.0001 0ZM25.7144 14.1429C23.5841 14.1429 21.8572 15.8698 21.8572 18.0001C21.8572 20.1303 23.5841 21.8572 25.7144 21.8572H46.2859C48.416 21.8572 50.143 20.1303 50.143 18.0001C50.143 15.8698 48.416 14.1429 46.2859 14.1429H25.7144Z" fill="#DEDDDC"/>
<path id="Vector_2" opacity="0.5" d="M1.01958 96.1759C4.11667 102.858 14.7445 102.858 36.0001 102.858C57.2556 102.858 67.8833 102.858 70.9804 96.1759C71.2468 95.6015 71.4715 95.0049 71.652 94.3919C73.756 87.2577 66.2412 78.989 51.2112 62.4516L41.143 51.4288H30.8572L20.789 62.4516C5.75905 78.989 -1.75593 87.2577 0.34792 94.3919C0.528795 95.0049 0.753384 95.6015 1.01958 96.1759Z" fill="#DEDDDC"/>
<path id="Vector_3" d="M25.7141 81.0003C23.5839 81.0003 21.8569 82.7273 21.8569 84.8574C21.8569 86.9876 23.5839 88.7146 25.7141 88.7146H46.2856C48.4158 88.7146 50.1427 86.9876 50.1427 84.8574C50.1427 82.7273 48.4158 81.0003 46.2856 81.0003H25.7141Z" fill="#DEDDDC"/>
</g>
</svg>
